<svg width="41" height="34" viewBox="0 0 41 34" fill="none" xmlns="http://www.w3.org/2000/svg">
<path opacity="0.05" d="M11.45 33.7C9.48333 33.7 7.63333 33.15 5.9 32.05C4.16667 30.9167 2.76667 29.1333 1.7 26.7C0.633333 24.2667 0.1 21.0833 0.1 17.15C0.1 13.1833 0.633333 9.98333 1.7 7.55C2.76667 5.11667 4.16667 3.33333 5.9 2.2C7.63333 1.06666 9.48333 0.499998 11.45 0.499998C13.4167 0.499998 15.2667 1.06666 17 2.2C18.7333 3.33333 20.1333 5.11667 21.2 7.55C22.2667 9.98333 22.8 13.1833 22.8 17.15C22.8 21.0833 22.2667 24.2667 21.2 26.7C20.1333 29.1333 18.7333 30.9167 17 32.05C15.2667 33.15 13.4167 33.7 11.45 33.7ZM11.45 32.3C12.3167 32.3 13.05 32.0833 13.65 31.65C14.25 31.2167 14.7333 30.4667 15.1 29.4C15.5 28.3 15.7833 26.7667 15.95 24.8C16.15 22.8 16.25 20.25 16.25 17.15C16.25 14.0167 16.15 11.4667 15.95 9.5C15.7833 7.5 15.5 5.95 15.1 4.85C14.7333 3.75 14.25 2.98333 13.65 2.55C13.05 2.11666 12.3167 1.9 11.45 1.9C10.6167 1.9 9.88333 2.11666 9.25 2.55C8.65 2.95 8.16667 3.7 7.8 4.8C7.43333 5.9 7.15 7.45 6.95 9.45C6.78333 11.45 6.7 14.0167 6.7 17.15C6.7 20.25 6.78333 22.8 6.95 24.8C7.15 26.7667 7.43333 28.3 7.8 29.4C8.16667 30.5 8.65 31.2667 9.25 31.7C9.88333 32.1 10.6167 32.3 11.45 32.3ZM25.3523 33V32.05L27.3023 31.45C28.569 31.05 29.219 30.2167 29.2523 28.95V5.15L25.1023 5.7V4.55C26.969 4.21666 28.7857 3.73333 30.5523 3.1C32.3523 2.43333 34.0523 1.63333 35.6523 0.699999L36.2523 1.2L36.0523 8.35V22.55C36.0523 23.4167 36.0523 24.4333 36.0523 25.6C36.0857 26.7333 36.1023 27.8333 36.1023 28.9C36.1023 30.2 36.7357 31.05 38.0023 31.45L40.0523 32.05V33H25.3523Z" fill="black"/>
</svg>
