<?xml version="1.0" encoding="UTF-8"?>
<svg xmlns="http://www.w3.org/2000/svg" xmlns:xlink="http://www.w3.org/1999/xlink" id="Layer_1" data-name="Layer 1" viewBox="0 0 1080 515.67">
  <defs>
    <style>.cls-1,.cls-7{fill:none;}.cls-2{fill:#ed6b52;}.cls-3{fill:#f7c13f;}.cls-4{clip-path:url(#clip-path);}.cls-5{fill:#4ab167;}.cls-6{font-size:36px;font-family:Poppins-SemiBold, Poppins;font-weight:600;}.cls-6,.cls-8{fill:#1d1d1b;}.cls-7{stroke:#1d1d1b;stroke-miterlimit:10;stroke-width:5px;}</style>
    <clipPath id="clip-path">
      <rect class="cls-1" x="62.28" y="213.29" width="954.42" height="137.71" rx="15.96"></rect>
    </clipPath>
  </defs>
  <circle class="cls-2" cx="106.31" cy="28.23" r="3.19"></circle>
  <circle class="cls-3" cx="144.75" cy="28.23" r="3.19"></circle>
  <circle class="cls-3" cx="183.18" cy="28.23" r="3.19"></circle>
  <circle class="cls-2" cx="221.61" cy="28.23" r="3.19"></circle>
  <circle class="cls-2" cx="260.05" cy="28.23" r="3.19"></circle>
  <circle class="cls-2" cx="298.48" cy="28.23" r="3.19"></circle>
  <circle class="cls-2" cx="336.92" cy="28.23" r="3.19"></circle>
  <circle class="cls-2" cx="119.98" cy="62.4" r="3.19"></circle>
  <circle class="cls-3" cx="158.41" cy="62.4" r="3.19"></circle>
  <circle class="cls-2" cx="196.85" cy="62.4" r="3.19"></circle>
  <circle class="cls-2" cx="235.28" cy="62.4" r="3.19"></circle>
  <circle class="cls-2" cx="273.72" cy="62.4" r="3.19"></circle>
  <circle class="cls-2" cx="312.15" cy="62.4" r="3.19"></circle>
  <circle class="cls-2" cx="350.58" cy="62.4" r="3.19"></circle>
  <circle class="cls-2" cx="106.31" cy="100.83" r="3.19"></circle>
  <circle class="cls-3" cx="144.75" cy="100.83" r="3.19"></circle>
  <circle class="cls-3" cx="183.18" cy="100.83" r="3.19"></circle>
  <circle class="cls-2" cx="221.61" cy="100.83" r="3.19"></circle>
  <circle class="cls-2" cx="260.05" cy="100.83" r="3.19"></circle>
  <circle class="cls-2" cx="298.48" cy="100.83" r="3.19"></circle>
  <circle class="cls-2" cx="336.92" cy="100.83" r="3.19"></circle>
  <circle class="cls-2" cx="119.98" cy="135.42" r="3.19"></circle>
  <circle class="cls-3" cx="158.41" cy="135.42" r="3.19"></circle>
  <circle class="cls-2" cx="196.85" cy="135.42" r="3.19"></circle>
  <circle class="cls-2" cx="235.28" cy="135.42" r="3.19"></circle>
  <circle class="cls-2" cx="273.72" cy="135.42" r="3.19"></circle>
  <circle class="cls-2" cx="312.15" cy="135.42" r="3.19"></circle>
  <circle class="cls-2" cx="350.58" cy="135.42" r="3.19"></circle>
  <circle class="cls-2" cx="106.31" cy="173.86" r="3.19"></circle>
  <circle class="cls-3" cx="144.75" cy="173.86" r="3.19"></circle>
  <circle class="cls-3" cx="183.18" cy="173.86" r="3.19"></circle>
  <circle class="cls-2" cx="221.61" cy="173.86" r="3.19"></circle>
  <circle class="cls-2" cx="260.05" cy="173.86" r="3.19"></circle>
  <circle class="cls-2" cx="298.48" cy="173.86" r="3.19"></circle>
  <circle class="cls-2" cx="336.92" cy="173.86" r="3.19"></circle>
  <circle class="cls-2" cx="119.98" cy="208.02" r="3.19"></circle>
  <circle class="cls-3" cx="158.41" cy="208.02" r="3.19"></circle>
  <circle class="cls-2" cx="196.85" cy="208.02" r="3.19"></circle>
  <circle class="cls-2" cx="235.28" cy="208.02" r="3.19"></circle>
  <circle class="cls-2" cx="273.72" cy="208.02" r="3.19"></circle>
  <circle class="cls-2" cx="312.15" cy="208.02" r="3.19"></circle>
  <circle class="cls-2" cx="350.58" cy="208.02" r="3.19"></circle>
  <circle class="cls-2" cx="106.31" cy="246.46" r="3.19"></circle>
  <circle class="cls-3" cx="144.75" cy="246.46" r="3.19"></circle>
  <circle class="cls-2" cx="183.18" cy="246.46" r="3.19"></circle>
  <circle class="cls-2" cx="221.61" cy="246.46" r="3.19"></circle>
  <circle class="cls-2" cx="260.05" cy="246.46" r="3.19"></circle>
  <circle class="cls-2" cx="298.48" cy="246.46" r="3.19"></circle>
  <circle class="cls-2" cx="336.92" cy="246.46" r="3.19"></circle>
  <circle class="cls-2" cx="751.83" cy="269.79" r="3.19"></circle>
  <circle class="cls-2" cx="790.27" cy="269.79" r="3.19"></circle>
  <circle class="cls-2" cx="828.7" cy="269.79" r="3.19"></circle>
  <circle class="cls-2" cx="867.14" cy="269.79" r="3.19"></circle>
  <circle class="cls-2" cx="905.57" cy="269.79" r="3.19"></circle>
  <circle class="cls-2" cx="944.01" cy="269.79" r="3.19"></circle>
  <circle class="cls-2" cx="982.44" cy="269.79" r="3.19"></circle>
  <circle class="cls-2" cx="765.5" cy="303.95" r="3.19"></circle>
  <circle class="cls-2" cx="803.94" cy="303.95" r="3.19"></circle>
  <circle class="cls-2" cx="842.37" cy="303.95" r="3.19"></circle>
  <circle class="cls-2" cx="880.8" cy="303.95" r="3.19"></circle>
  <circle class="cls-2" cx="919.24" cy="303.95" r="3.19"></circle>
  <circle class="cls-2" cx="957.67" cy="303.95" r="3.19"></circle>
  <circle class="cls-2" cx="996.11" cy="303.95" r="3.19"></circle>
  <circle class="cls-2" cx="751.83" cy="342.39" r="3.19"></circle>
  <circle class="cls-2" cx="790.27" cy="342.39" r="3.19"></circle>
  <circle class="cls-2" cx="828.7" cy="342.39" r="3.19"></circle>
  <circle class="cls-2" cx="867.14" cy="342.39" r="3.19"></circle>
  <circle class="cls-2" cx="905.57" cy="342.39" r="3.19"></circle>
  <circle class="cls-2" cx="944.01" cy="342.39" r="3.19"></circle>
  <circle class="cls-2" cx="982.44" cy="342.39" r="3.19"></circle>
  <circle class="cls-2" cx="765.5" cy="376.98" r="3.19"></circle>
  <circle class="cls-2" cx="803.94" cy="376.98" r="3.19"></circle>
  <circle class="cls-2" cx="842.37" cy="376.98" r="3.19"></circle>
  <circle class="cls-2" cx="880.8" cy="376.98" r="3.19"></circle>
  <circle class="cls-2" cx="919.24" cy="376.98" r="3.19"></circle>
  <circle class="cls-2" cx="957.67" cy="376.98" r="3.19"></circle>
  <circle class="cls-2" cx="996.11" cy="376.98" r="3.19"></circle>
  <circle class="cls-2" cx="751.83" cy="415.42" r="3.19"></circle>
  <circle class="cls-2" cx="790.27" cy="415.42" r="3.19"></circle>
  <circle class="cls-2" cx="828.7" cy="415.42" r="3.19"></circle>
  <circle class="cls-2" cx="867.14" cy="415.42" r="3.19"></circle>
  <circle class="cls-2" cx="905.57" cy="415.42" r="3.19"></circle>
  <circle class="cls-2" cx="944.01" cy="415.42" r="3.19"></circle>
  <circle class="cls-2" cx="982.44" cy="415.42" r="3.19"></circle>
  <circle class="cls-2" cx="765.5" cy="449.58" r="3.19"></circle>
  <circle class="cls-2" cx="803.94" cy="449.58" r="3.19"></circle>
  <circle class="cls-2" cx="842.37" cy="449.58" r="3.19"></circle>
  <circle class="cls-2" cx="880.8" cy="449.58" r="3.19"></circle>
  <circle class="cls-2" cx="919.24" cy="449.58" r="3.19"></circle>
  <circle class="cls-2" cx="957.67" cy="449.58" r="3.19"></circle>
  <circle class="cls-2" cx="996.11" cy="449.58" r="3.19"></circle>
  <circle class="cls-2" cx="751.83" cy="488.01" r="3.19"></circle>
  <circle class="cls-2" cx="790.27" cy="488.01" r="3.19"></circle>
  <circle class="cls-2" cx="828.7" cy="488.01" r="3.19"></circle>
  <circle class="cls-2" cx="867.14" cy="488.01" r="3.19"></circle>
  <circle class="cls-2" cx="905.57" cy="488.01" r="3.19"></circle>
  <circle class="cls-2" cx="944.01" cy="488.01" r="3.19"></circle>
  <circle class="cls-2" cx="982.44" cy="488.01" r="3.19"></circle>
  <g class="cls-4">
    <rect class="cls-5" x="51.85" y="198.99" width="326.5" height="166.95"></rect>
    <rect class="cls-3" x="377.54" y="198.99" width="326.5" height="166.95"></rect>
    <rect class="cls-2" x="701.65" y="198.99" width="326.5" height="166.95"></rect>
    <text class="cls-6" transform="translate(162.35 297.96)">GOOD</text>
    <text class="cls-6" transform="translate(488.45 272.76)">NEEDS<tspan x="-72.02" y="43.2">IMPROVEMENT</tspan></text>
    <text class="cls-6" transform="translate(806.29 301.96)">POOR</text>
  </g>
  <line class="cls-7" x1="378" y1="398.25" x2="378" y2="351.94"></line>
  <text class="cls-6" transform="translate(356.89 442.2)">0.1</text>
  <circle class="cls-8" cx="377.45" cy="350.68" r="6.51"></circle>
  <text class="cls-6" transform="translate(663.24 437.57)">0.25</text>
  <line class="cls-7" x1="700" y1="398.25" x2="700" y2="351.94"></line>
  <circle class="cls-8" cx="700" cy="352.68" r="6.51"></circle>
</svg>
