<?xml version="1.0" encoding="UTF-8"?>
<!-- Generator: Adobe Illustrator 27.2.0, SVG Export Plug-In . SVG Version: 6.00 Build 0)  -->
<svg xmlns="http://www.w3.org/2000/svg" xmlns:xlink="http://www.w3.org/1999/xlink" version="1.1" id="Layer_1" x="0px" y="0px" viewBox="0 0 1080 1080" style="enable-background:new 0 0 1080 1080;" xml:space="preserve">
<style type="text/css">
	.st01{fill:#ffffff;}
</style>
<g>
	<path class="st01" d="M541.8,534.1c0.1-4.4,1.8-8.3,3.4-12.3c10.3-25.8,20.5-51.6,31-77.3c2-5,1.9-9.1-0.1-14c-11.2-27.5-21.8-55.2-33.1-82.7   c-4.5-10.8-3.1-21.3-1-32c3.3-16.7,6.4-33.5,10.5-50.1c4.4-18,21.3-34.4,43.1-34.4c32.9,0,65.7,0,98.6,0c12,0,22.5,3.9,30.9,12.2   c23.6,23.2,46.9,46.6,70.2,70.2c8.3,8.4,12.3,18.9,12.3,30.8c0,153.2,0.1,306.3-0.1,459.5c0,27.7-20,46-45.9,46   c-54.8,0.1-109.5-0.3-164.3,0.2c-22.1,0.2-41.7-16.7-46.2-39.6c-3.8-19.4-7.8-38.8-11.4-58.2c-1-5.5,0.6-11,2.6-16   c11.3-28.8,22.8-57.6,34.4-86.3c1.7-4.2,2-8,0.1-12.3c-11.4-26.7-21.1-54.1-32.8-80.6c-1.3-3-1.3-6.6-2-10   C541,542.8,541,538.5,541.8,534.1z"></path>
	<path class="st01" d="M508.6,283c-3.1,14.6-6.2,29.3-9.1,43.9c-0.7,3.6,0.1,7.1,1.5,10.6c10.5,25.9,20.9,51.8,31.1,77.7c2,5.1,4.4,10.1,4.7,15.7   c0.8,4.4,0.8,8.7,0,13.1c-0.3,5.6-2.7,10.6-4.7,15.7c-9.9,25-19.8,49.9-30,74.7c-1.7,4.3-1.7,8,0,12.3c10.1,24.9,20.1,49.8,30,74.7   c2,5.1,4.4,10.1,4.7,15.7c0.8,4.4,0.8,8.7,0,13.1c-0.3,5.4-2.6,10.2-4.5,15.1c-9,22.8-17.5,45.8-27.6,68.1   c-5.2,11.6-5.5,22.6-2.8,34.3c2.3,10.1,4.4,20.3,6.6,30.4c0.6,4.4,0.8,8.8-0.1,13.2c-2.5,20.3-20.1,38.3-43.5,38.4   c-49.6,0.4-99.2-0.2-148.8,0.3c-17.3,0.2-36-12.8-42-29.1c-1.8-5-3-10-3-15.5c0.1-176.8,0.1-353.5,0-530.3   c0-22.5,20.8-44.1,44.3-44c49.4,0.2,98.8-0.2,148.2,0.2c25.9,0.2,42,18.3,44.8,38.4C509.4,274.2,509.3,278.6,508.6,283z"></path>
	<path class="st01" d="M508.6,283c0-4.4,0-8.8-0.1-13.2C510.4,274.2,510.5,278.6,508.6,283z"></path>
	<path class="st01" d="M536.9,444.1c0-4.4,0-8.7,0-13.1C538.8,435.4,538.8,439.7,536.9,444.1z"></path>
	<path class="st01" d="M541.8,534.1c0,4.4,0,8.7,0,13.1C539.9,542.8,539.9,538.5,541.8,534.1z"></path>
	<path class="st01" d="M536.9,650.3c0-4.4,0-8.7,0-13.1C538.8,641.6,538.8,645.9,536.9,650.3z"></path>
	<path class="st01" d="M508.6,811.4c0-4.4,0-8.8,0.1-13.2C510.5,802.6,510.4,807,508.6,811.4z"></path>
</g>
</svg>
