<?xml version="1.0" encoding="UTF-8"?>
<svg xmlns="http://www.w3.org/2000/svg" width="50" height="50" viewBox="0 0 50 50" fill="none">
  <path d="M25 34.375C30.1777 34.375 34.375 30.1777 34.375 25C34.375 19.8223 30.1777 15.625 25 15.625C19.8223 15.625 15.625 19.8223 15.625 25C15.625 30.1777 19.8223 34.375 25 34.375Z" stroke="#ED6C50" stroke-width="2" stroke-linecap="round" stroke-linejoin="round"></path>
  <path d="M35.8789 12.7148C36.3737 13.1706 36.8424 13.6393 37.2852 14.1211L42.6172 14.8828C43.486 16.3916 44.1556 18.0066 44.6094 19.6875L41.3672 24.0039C41.3672 24.0039 41.4258 25.332 41.3672 25.9961L44.6094 30.3125C44.1577 31.9941 43.488 33.6094 42.6172 35.1172L37.2852 35.8789C37.2852 35.8789 36.3672 36.8359 35.8789 37.2852L35.1172 42.6172C33.6084 43.486 31.9934 44.1556 30.3125 44.6094L25.9961 41.3672C25.3333 41.4258 24.6667 41.4258 24.0039 41.3672L19.6875 44.6094C18.0059 44.1577 16.3906 43.488 14.8828 42.6172L14.1211 37.2852C13.6393 36.8294 13.1706 36.3607 12.7148 35.8789L7.38281 35.1172C6.51403 33.6084 5.84439 31.9934 5.39062 30.3125L8.63281 25.9961C8.63281 25.9961 8.57422 24.668 8.63281 24.0039L5.39062 19.6875C5.84229 18.0059 6.51203 16.3906 7.38281 14.8828L12.7148 14.1211C13.1706 13.6393 13.6393 13.1706 14.1211 12.7148L14.8828 7.38281C16.3916 6.51403 18.0066 5.84439 19.6875 5.39062L24.0039 8.63281C24.6667 8.57421 25.3333 8.57421 25.9961 8.63281L30.3125 5.39062C31.9941 5.84229 33.6094 6.51203 35.1172 7.38281L35.8789 12.7148Z" stroke="#ED6C50" stroke-width="2" stroke-linecap="round" stroke-linejoin="round"></path>
</svg>
