<?xml version="1.0" encoding="UTF-8"?>
<!--Generator: Adobe Illustrator 25.4.1, SVG Export Plug-In . SVG Version: 6.00 Build 0)-->
<svg xmlns:x="http://ns.adobe.com/Extensibility/1.0/" xmlns:i="http://ns.adobe.com/AdobeIllustrator/10.0/" xmlns:graph="http://ns.adobe.com/Graphs/1.0/" xmlns="http://www.w3.org/2000/svg" xmlns:xlink="http://www.w3.org/1999/xlink" version="1.1" id="Layer_1" x="0px" y="0px" viewBox="0 0 1080 674.4" style="enable-background:new 0 0 1080 674.4" xml:space="preserve">
  <style type="text/css">.st0{fill:#FFFFFF;stroke:#4265AE;stroke-width:5;stroke-miterlimit:10;}
	.st1{opacity:0.48;fill:#E5EDF6;enable-background:new    ;}
	.st2{opacity:0.5;}
	.st3{fill:#E5EDF6;}
	.st4{clip-path:url(#SVGID_00000092424502437735867870000009711895669412604327_);}
	.st5{fill:#ED6B52;}
	.st6{fill:#4265AD;}
	.st7{fill:#F7C13F;}
	.st8{fill:#4265AE;}
	.st9{font-family:'Poppins-SemiBold';}
	.st10{font-size:40.07px;}
	.st11{clip-path:url(#SVGID_00000114772205800665367310000004603002776535890562_);}
	.st12{fill:none;stroke:#FFFFFF;stroke-width:4;stroke-miterlimit:10;}
	.st13{fill:#3AA513;}</style>
  <switch>
    <g i:extraneous="self">
      <path class="st0" d="M97.3,31.8h370.2c25.4,0,45.9,20.6,45.9,45.9v495.4c0,25.4-20.6,45.9-45.9,45.9H97.3    c-25.4,0-45.9-20.6-45.9-45.9V77.7C51.4,52.4,71.9,31.8,97.3,31.8z"></path>
      <path class="st1" d="M318.6,155h148.5c7.1,0,12.8,5.8,12.8,12.8v0c0,7.1-5.8,12.8-12.8,12.8H318.6c-7.1,0-12.8-5.8-12.8-12.8v0    C305.8,160.8,311.6,155,318.6,155z"></path>
      <path class="st1" d="M318.6,211.8h148.5c7.1,0,12.8,5.8,12.8,12.8v0c0,7.1-5.8,12.8-12.8,12.8H318.6c-7.1,0-12.8-5.8-12.8-12.8v0    C305.8,217.6,311.6,211.8,318.6,211.8z"></path>
      <path class="st1" d="M318.6,272.3h148.5c7.1,0,12.8,5.8,12.8,12.8l0,0c0,7.1-5.8,12.8-12.8,12.8H318.6c-7.1,0-12.8-5.8-12.8-12.8    l0,0C305.8,278,311.6,272.3,318.6,272.3z"></path>
      <g class="st2">
        <path class="st3" d="M220.6,305.1H107.7c-12.6,0-22.9-10.2-22.9-22.9V169.3c0-12.6,10.2-22.9,22.9-22.9h112.9     c12.6,0,22.9,10.2,22.9,22.9v112.9C243.4,294.8,233.2,305.1,220.6,305.1z"></path>
        <g>
          <defs>
            <path id="SVGID_1_" d="M220.6,305.1H107.7c-12.6,0-22.9-10.2-22.9-22.9V169.3c0-12.6,10.2-22.9,22.9-22.9h112.9       c12.6,0,22.9,10.2,22.9,22.9v112.9C243.4,294.8,233.2,305.1,220.6,305.1z"></path>
          </defs>
          <clipPath id="SVGID_00000057865986791307608880000017235188696963766184_">
            <use xlink:href="#SVGID_1_" style="overflow:visible"></use>
          </clipPath>
          <g style="clip-path:url(#SVGID_00000057865986791307608880000017235188696963766184_)">
            <path class="st5" d="M230.8,336.8L230.8,336.8c-25.4,25.4-66.6,25.4-92,0l0,0c-25.4-25.4-25.4-66.6,0-92l0,0       c25.4-25.4,66.6-25.4,92,0l0,0C256.3,270.2,256.3,311.4,230.8,336.8z"></path>
            <path class="st6" d="M159.7,337.7L159.7,337.7c-22.4,22.4-58.6,22.4-80.9,0l0,0c-22.4-22.4-22.4-58.6,0-80.9h0       c22.4-22.4,58.6-22.4,80.9,0h0C182.1,279.1,182.1,315.4,159.7,337.7z"></path>
          </g>
        </g>
        <circle class="st7" cx="145.3" cy="185.2" r="19.3"></circle>
      </g>
      <path class="st1" d="M96.1,330.9h372.5c7.1,0,12.8,5.8,12.8,12.8v72.4c0,7.1-5.8,12.8-12.8,12.8H96.1c-7.1,0-12.8-5.8-12.8-12.8    v-72.4C83.3,336.6,89,330.9,96.1,330.9z"></path>
      <path class="st1" d="M96.1,456.9h372.5c7.1,0,12.8,5.8,12.8,12.8v1.9c0,7.1-5.8,12.8-12.8,12.8H96.1c-7.1,0-12.8-5.8-12.8-12.8    v-1.9C83.3,462.6,89,456.9,96.1,456.9z"></path>
      <text transform="matrix(1 0 0 1 85 595.3)" class="st8 st9 st10">1 MB</text>
      <path class="st0" d="M623.3,31.8h370.2c25.4,0,45.9,20.6,45.9,45.9v495.4c0,25.4-20.6,45.9-45.9,45.9H623.3    c-25.4,0-45.9-20.6-45.9-45.9V77.7C577.4,52.4,597.9,31.8,623.3,31.8z"></path>
      <path class="st1" d="M844.6,155h148.5c7.1,0,12.8,5.8,12.8,12.8v0c0,7.1-5.8,12.8-12.8,12.8H844.6c-7.1,0-12.8-5.8-12.8-12.8v0    C831.8,160.8,837.6,155,844.6,155z"></path>
      <path class="st1" d="M844.6,211.8h148.5c7.1,0,12.8,5.8,12.8,12.8v0c0,7.1-5.8,12.8-12.8,12.8H844.6c-7.1,0-12.8-5.8-12.8-12.8v0    C831.8,217.6,837.6,211.8,844.6,211.8z"></path>
      <path class="st1" d="M844.6,272.3h148.5c7.1,0,12.8,5.8,12.8,12.8l0,0c0,7.1-5.8,12.8-12.8,12.8H844.6c-7.1,0-12.8-5.8-12.8-12.8    l0,0C831.8,278,837.6,272.3,844.6,272.3z"></path>
      <g class="st2">
        <path class="st3" d="M746.5,305.1H633.7c-12.6,0-22.9-10.2-22.9-22.9V169.3c0-12.6,10.2-22.9,22.9-22.9h112.9     c12.6,0,22.9,10.2,22.9,22.9v112.9C769.4,294.8,759.2,305.1,746.5,305.1z"></path>
        <g>
          <defs>
            <path id="SVGID_00000032647857620646134970000009999278808187619493_" d="M746.5,305.1H633.7c-12.6,0-22.9-10.2-22.9-22.9       V169.3c0-12.6,10.2-22.9,22.9-22.9h112.9c12.6,0,22.9,10.2,22.9,22.9v112.9C769.4,294.8,759.2,305.1,746.5,305.1z"></path>
          </defs>
          <clipPath id="SVGID_00000047763715721395943000000015024574295465797786_">
            <use xlink:href="#SVGID_00000032647857620646134970000009999278808187619493_" style="overflow:visible"></use>
          </clipPath>
          <g style="clip-path:url(#SVGID_00000047763715721395943000000015024574295465797786_)">
            <path class="st5" d="M756.8,336.8L756.8,336.8c-25.4,25.4-66.6,25.4-92,0l0,0c-25.4-25.4-25.4-66.6,0-92l0,0       c25.4-25.4,66.6-25.4,92,0l0,0C782.3,270.2,782.3,311.4,756.8,336.8z"></path>
            <path class="st6" d="M685.7,337.7L685.7,337.7c-22.4,22.4-58.6,22.4-80.9,0v0c-22.4-22.4-22.4-58.6,0-80.9l0,0       c22.4-22.4,58.6-22.4,80.9,0h0C708.1,279.1,708.1,315.4,685.7,337.7z"></path>
          </g>
        </g>
        <circle class="st7" cx="671.3" cy="185.2" r="19.3"></circle>
      </g>
      <path class="st1" d="M622.1,330.9h372.6c7.1,0,12.8,5.8,12.8,12.8v72.4c0,7.1-5.8,12.8-12.8,12.8H622.1c-7.1,0-12.8-5.8-12.8-12.8    v-72.4C609.3,336.6,615,330.9,622.1,330.9z"></path>
      <path class="st1" d="M622.1,456.9h372.6c7.1,0,12.8,5.8,12.8,12.8v1.9c0,7.1-5.8,12.8-12.8,12.8H622.1c-7.1,0-12.8-5.8-12.8-12.8    v-1.9C609.3,462.6,615,456.9,622.1,456.9z"></path>
      <text transform="matrix(1 0 0 1 613.41 595.3)" class="st8 st9 st10">50KB</text>
      <g>
        <circle class="st5" cx="494.6" cy="592.1" r="40.7"></circle>
        <g>
          <line class="st12" x1="517.8" y1="568.9" x2="471.4" y2="615.2"></line>
          <line class="st12" x1="471.4" y1="568.9" x2="517.8" y2="615.2"></line>
        </g>
      </g>
      <circle class="st13" cx="1030.4" cy="586.5" r="40.7"></circle>
      <polyline class="st12" points="1009.3,590.6 1020.6,604 1051.6,569   "></polyline>
    </g>
  </switch>
</svg>
