<?xml version="1.0" encoding="UTF-8"?>
<!-- Generator: Adobe Illustrator 27.2.0, SVG Export Plug-In . SVG Version: 6.00 Build 0)  -->
<svg xmlns="http://www.w3.org/2000/svg" xmlns:xlink="http://www.w3.org/1999/xlink" version="1.1" id="Layer_1" x="0px" y="0px" viewBox="0 0 1080 1080" style="enable-background:new 0 0 1080 1080;" xml:space="preserve">
<style type="text/css">
	.st0{fill:#ffffff;}
	.st1{fill:#ffffff;}
	.st2{fill:#ffffff;}
	.st3{fill:#ffffff;}
	.st4{fill:#F1B308;}
</style>
<g>
	<path class="st0" d="M527.9,723.8c-20.8-1-41-4.7-60.3-12.9c-6.1-2.6-11.4-2-17.3,1.3c-15,8.4-29.7,17.2-45.2,24.7c-5.7,2.7-10.7,4.1-16-0.3   c-5.5-4.6-8.2-10.7-6.8-17.6c3.4-17,7.1-34,11.6-50.8c1.3-4.6-0.1-6.8-2.6-9.6c-19.9-22.1-33.5-47.7-42.3-76   c-8-25.7-9.6-52.3-6.6-78.5c8.9-76,58.3-140.9,135.1-165.4c21.4-6.8,43.3-10.5,65.7-9.4c64.8,3,118.3,28.3,156.9,81.6   c18.4,25.3,28.8,53.8,33.4,85c8,54.3-3.1,103.7-34.7,148.1c-22.5,31.6-52.6,54-89.1,67.4c-19.1,7-39,10.9-59.3,12.5   C543,724.7,535.4,724.7,527.9,723.8z"></path>
	<path class="st0" d="M471.6,794.1c0-12,13.8-25.9,25.9-25.9c22.5-0.9,45-0.7,67.4-0.1c18.1-3,36.2-6.2,53.6-12.4c36.8-13.2,69.1-33.3,96.1-62   c20.4-21.6,36.1-45.8,48.1-72.8c4.7-10.6,5.6-21.9,7.4-33c3.2-19.3,5.1-38.8,8.6-58c2.4-13.4,1.5-26.2-0.3-39.6   c-4.1-29.3-13.1-56.7-27.6-82.3c-29.8-52.6-73.3-89.4-130.1-109.8c-18.8-6.7-38.2-12.5-58.7-12.4c-3.9,0-7.7-1.2-11.6-1.8   c-8-0.9-16.1-0.9-24.1,0c-49.7,2.2-94.4,19.2-133.8,48.8c-35.1,26.4-60.9,60.6-78,101.4c-8.7,20.8-14.1,42.3-17.2,64.4   c-2.1,15.2,1.3,30.4,3.6,45.5c2.6,16.5,4.9,33.1,7.4,49.6c2.4,15.7,5.3,31.4,7.2,47.1c1.1,8.4,3.5,16.6,1.3,25.7   c-2,8.5-6.6,13.6-13.6,16.2c-17.8,6.5-35.9,11.9-55.3,7.3c-16-3.7-28-13.6-38.1-25.8c-17.9-21.5-27.7-46.6-31.7-74.3   c-2.2-15.2-2.7-30.4-1.1-45.3c4.4-40.2,20.1-74,58.9-92.5c7.5-3.6,15.5-6.9,24.1-5.8c4.1,0.5,4.3-1.6,5.4-4.6   c8.3-23.4,18.2-46.1,31.5-67.2c28.7-45.6,67.3-80.3,115.6-104.2c30-14.9,61.7-24.3,95.1-27.8c38.1-3.9,75.2,0.4,112,10.7   c57.6,16.1,104.1,48.5,141.6,94.2c23,28,39.5,59.7,50.1,94.3c1.1,3.4,1.5,6.2,6.3,6.2c31.4-0.3,52.5,16.2,66.6,42.7   c9,17,13.2,35.4,15.7,54.6c3.4,26.5-0.5,51.8-8.5,76.5c-8.3,25.5-22.2,47.4-45.7,62c-6.6,4.1-13.9,6.3-21.3,7.9   c-5.4,1.1-10.9,0.8-16.3,0.2c-9,0.1-17.4-3.6-25.8-5.8c-5.7-1.5-6.9,0.7-9.2,3.8c-18.1,25.5-39.4,48-64.7,66.3   c-25.1,18.2-51.8,33.2-81.9,41.4c-1.2,0.3-2.3,1.5-3.5,1.6c-12.7,1.2-17.5,8.2-18.6,20.8c-1.2,13.3-14.9,20.6-25.3,20.6   c-27,0.2-53.9,0.1-80.9,0c-14,0-26.2-13.2-26.8-25.6C470.7,808,470.8,801,471.6,794.1z"></path>
	<path class="st0" d="M564.9,768.1c-22.5,0-45,0.1-67.4,0.1c2.2-2.1,5-1.3,7.6-1.3c17.7-0.1,35.4-0.1,53.1,0   C560.4,766.9,563,765.9,564.9,768.1z"></path>
	<path class="st1" d="M526.3,284c8-2.3,16.1-2.3,24.1,0C542.4,284,534.4,284,526.3,284z"></path>
	<path class="st2" d="M527.9,723.8c7.5,0,15,0,22.5,0C543,726.1,535.4,726.1,527.9,723.8z"></path>
	<path class="st2" d="M471.6,794.1c0,7,0,13.9,0,20.9C469.4,808,469.4,801,471.6,794.1z"></path>
	<path class="st3" d="M808.4,691.8c5.4-0.1,10.9-0.1,16.3-0.2C819.3,693.9,813.8,694.1,808.4,691.8z"></path>
	<path class="st4" d="M638.9,563.2c-17.8,3.1-37.4-17.9-37.3-37c0.1-18.4,18-38.1,37.6-36.9c22,1.3,37.2,14.4,37.3,37.1   C676.6,551.3,656.8,565.1,638.9,563.2z"></path>
	<path class="st4" d="M537.1,563.2c-20.3,0.9-35.7-18.6-36.1-36.5c-0.3-16.4,14-38,37.9-37.3c21,0.6,37.1,15.1,37.2,37.5   C576.3,545.9,561.9,564.4,537.1,563.2z"></path>
	<path class="st4" d="M437.7,563.2c-21.4-0.2-36.4-16.5-36.3-39.7c0.1-17.7,18.1-34.8,37-34c19.6,0.8,38.5,12.2,36.8,41.3   C474.2,548.8,457.6,564.5,437.7,563.2z"></path>
</g>
</svg>
