<?xml version="1.0" encoding="UTF-8"?>
<!-- Generator: Adobe Illustrator 16.0.0, SVG Export Plug-In . SVG Version: 6.00 Build 0)  -->
<svg xmlns="http://www.w3.org/2000/svg" xmlns:xlink="http://www.w3.org/1999/xlink" version="1.1" id="Layer_1" x="0px" y="0px" width="87.832px" height="25px" viewBox="259.5 383.5 87.832 25" xml:space="preserve">
<g>
	<path fill="#FFFFFF" d="M268.833,383.647c0,0.018,0.019,0.018,0,0.036h-0.959v-0.036H268.833z"></path>
	<path fill="#ffffff" d="M267.874,383.665h0.959c2.952,0.218,5.217,1.63,6.756,4.129c0.743,1.25,1.141,2.663,1.123,4.13   c0.037,0.707-0.471,1.322-1.177,1.395c-0.652,0.072-1.268-0.362-1.431-1.015c-0.036-0.2-0.054-0.398-0.054-0.598   c-0.145-3.152-2.843-5.56-5.978-5.397c-2.663,0.145-4.89,2.101-5.325,4.746c-0.054,0.29-0.072,0.58-0.072,0.869   c0.036,0.743-0.543,1.358-1.286,1.395c-0.018,0-0.036,0-0.054,0c-0.725,0-1.323-0.58-1.323-1.305c0-0.036,0-0.072,0-0.126   c0-1.739,0.581-3.405,1.612-4.8c1.467-2.01,3.478-3.151,5.959-3.423H267.874z"></path>
	<path fill="#ffffff" d="M270.283,405.145h-4.926c-0.761,0-1.286-0.415-1.468-1.085c-0.181-0.742,0.291-1.503,1.033-1.685   c0.072-0.02,0.145-0.037,0.235-0.037h10.052c0.725,0,1.25,0.363,1.431,1.015c0.217,0.724-0.181,1.503-0.924,1.721   c-0.108,0.036-0.235,0.056-0.344,0.056c-1.449,0.016-2.916,0.016-4.365,0.016H270.283z"></path>
	<path fill="#ffffff" d="M270.283,401.18h-5.017c-0.652,0-1.231-0.453-1.377-1.105c-0.145-0.633,0.182-1.286,0.779-1.576   c0.181-0.09,0.38-0.145,0.58-0.145h10.088c0.779,0.037,1.376,0.67,1.358,1.449c-0.018,0.742-0.616,1.322-1.358,1.358   C273.634,401.18,271.949,401.18,270.283,401.18z"></path>
	<path fill="#ffffff" d="M270.283,397.213h-4.999c-0.779,0.019-1.414-0.616-1.431-1.395c0,0,0,0,0-0.018   c0-0.76,0.616-1.395,1.376-1.395c0.018,0,0.036,0,0.036,0h10.016c0.779,0,1.396,0.634,1.396,1.395c0,0.652-0.453,1.214-1.087,1.359   c-0.108,0.018-0.217,0.035-0.326,0.035L270.283,397.213z"></path>
	<path fill="#ED6C4F" d="M261.317,398.463c0.761,0,1.376,0.596,1.376,1.359l0,0c0,0.76-0.616,1.374-1.376,1.393   c-0.761,0-1.377-0.633-1.377-1.377C259.959,399.08,260.557,398.463,261.317,398.463z"></path>
	<path fill="#ED6C4F" d="M261.336,394.496c0.742,0,1.358,0.597,1.376,1.358c0,0.761-0.616,1.377-1.376,1.394   c-0.761,0-1.377-0.614-1.377-1.376C259.959,395.112,260.575,394.496,261.336,394.496L261.336,394.496z"></path>
	<path fill="#ED6C4F" d="M261.336,402.429c0.76,0,1.376,0.616,1.376,1.376c0,0.762-0.616,1.377-1.376,1.377   c-0.761-0.018-1.377-0.633-1.377-1.395C259.959,403.045,260.575,402.429,261.336,402.429L261.336,402.429z"></path>
</g>
<path fill="#FFFFFF" d="M269.351,383.5c0,0.018,0.018,0.018,0,0.036h-0.959V383.5H269.351z"></path>
<g>
	<path fill="#ffffff" d="M279.991,394.592h2.099v1.394h0.073c0.163-0.236,0.344-0.471,0.543-0.688   c0.199-0.199,0.416-0.38,0.651-0.525c0.253-0.163,0.543-0.271,0.833-0.343c0.362-0.092,0.724-0.127,1.085-0.127   c0.597-0.019,1.194,0.145,1.719,0.416c0.525,0.254,0.922,0.705,1.122,1.267c0.362-0.489,0.796-0.923,1.303-1.25   c0.488-0.307,1.122-0.452,1.845-0.452c1.068,0,1.9,0.272,2.479,0.796c0.58,0.525,0.904,1.394,0.904,2.625v7.004h-2.243v-5.918   c0-0.398-0.019-0.779-0.036-1.104c0-0.309-0.091-0.598-0.235-0.852c-0.108-0.234-0.308-0.434-0.543-0.543   c-0.326-0.145-0.669-0.199-1.013-0.18c-0.76,0-1.303,0.234-1.647,0.705s-0.524,1.141-0.524,1.99v5.918h-2.226v-6.516   c0-0.705-0.126-1.248-0.38-1.609s-0.724-0.543-1.394-0.543c-0.29,0-0.561,0.072-0.833,0.182c-0.271,0.125-0.507,0.289-0.706,0.523   c-0.217,0.236-0.38,0.525-0.488,0.814c-0.127,0.361-0.181,0.742-0.181,1.123v6.008h-2.226L279.991,394.592L279.991,394.592z"></path>
	<path fill="#ffffff" d="M305.053,402.465c-0.018,0.199,0.019,0.398,0.109,0.578c0.109,0.127,0.254,0.199,0.416,0.182h0.235   c0.108,0,0.199-0.02,0.289-0.037v1.539c-0.072,0.018-0.181,0.055-0.289,0.09l-0.381,0.09c-0.126,0.02-0.271,0.037-0.397,0.055   c-0.109,0.02-0.235,0.02-0.344,0.02c-0.397,0.018-0.796-0.092-1.14-0.271c-0.29-0.182-0.489-0.49-0.579-0.979   c-0.452,0.434-1.014,0.762-1.629,0.924c-0.597,0.18-1.23,0.271-1.847,0.289c-0.434,0-0.886-0.055-1.302-0.182   c-0.398-0.107-0.778-0.289-1.104-0.543c-0.325-0.234-0.579-0.543-0.76-0.904c-0.199-0.398-0.289-0.85-0.289-1.303   c-0.019-0.525,0.09-1.049,0.344-1.52c0.217-0.381,0.524-0.688,0.904-0.904c0.381-0.236,0.814-0.398,1.248-0.471   c0.453-0.09,0.924-0.182,1.395-0.236c0.398-0.072,0.796-0.125,1.158-0.162c0.325-0.037,0.65-0.09,0.977-0.182   c0.254-0.055,0.471-0.18,0.652-0.361c0.18-0.199,0.271-0.471,0.253-0.742c0-0.254-0.073-0.506-0.199-0.705   c-0.126-0.182-0.308-0.346-0.524-0.416c-0.217-0.109-0.453-0.164-0.688-0.182c-0.236-0.037-0.471-0.055-0.707-0.055   c-0.543-0.018-1.086,0.109-1.537,0.398c-0.398,0.271-0.652,0.725-0.688,1.213h-2.227c0.018-0.58,0.181-1.141,0.471-1.629   c0.254-0.416,0.615-0.779,1.031-1.032c0.453-0.271,0.941-0.452,1.447-0.542c0.543-0.109,1.104-0.146,1.647-0.164   c0.488,0,0.978,0.055,1.466,0.164c0.452,0.09,0.904,0.271,1.303,0.524c0.38,0.217,0.688,0.524,0.923,0.905   c0.253,0.416,0.38,0.887,0.361,1.375v5.211V402.465L305.053,402.465z M302.81,399.623c-0.38,0.234-0.814,0.381-1.248,0.398   c-0.489,0.035-0.996,0.107-1.484,0.199c-0.235,0.037-0.471,0.09-0.688,0.18c-0.199,0.074-0.398,0.164-0.58,0.291   c-0.162,0.125-0.307,0.289-0.398,0.488c-0.107,0.234-0.162,0.488-0.162,0.742c0,0.234,0.072,0.451,0.199,0.635   c0.145,0.16,0.326,0.289,0.524,0.396c0.218,0.109,0.435,0.162,0.651,0.199c0.218,0.035,0.436,0.053,0.652,0.053   c0.271,0,0.543-0.035,0.796-0.09c0.29-0.072,0.562-0.18,0.813-0.344c0.254-0.145,0.453-0.344,0.635-0.578   c0.181-0.271,0.271-0.58,0.253-0.887L302.81,399.623L302.81,399.623z"></path>
	<path fill="#ffffff" d="M307.026,390.719h2.207v13.99h-2.207V390.719z"></path>
	<path fill="#ffffff" d="M317.866,397.977c-0.055-0.561-0.326-1.066-0.76-1.43c-0.453-0.326-0.996-0.508-1.557-0.471   c-0.309,0.018-0.615,0.072-0.906,0.164c-0.342,0.107-0.65,0.289-0.904,0.541c-0.289,0.326-0.523,0.707-0.688,1.123   c-0.217,0.471-0.271,1.104-0.271,1.863c0,0.434,0.055,0.852,0.164,1.268c0.09,0.398,0.234,0.777,0.471,1.121   c0.217,0.326,0.488,0.598,0.832,0.797c0.379,0.217,0.814,0.307,1.248,0.307c0.598,0.018,1.176-0.197,1.629-0.613   c0.434-0.398,0.688-0.979,0.797-1.721h2.207c-0.199,1.303-0.707,2.316-1.484,3.021c-0.777,0.707-1.846,1.033-3.131,1.033   c-0.723,0.018-1.447-0.127-2.098-0.398c-0.598-0.254-1.123-0.635-1.539-1.104c-0.434-0.473-0.76-1.031-0.941-1.646   c-0.217-0.67-0.326-1.377-0.326-2.082c0-0.723,0.092-1.43,0.291-2.117c0.199-0.633,0.506-1.213,0.922-1.736   c0.436-0.508,0.959-0.887,1.557-1.16c0.688-0.289,1.43-0.434,2.189-0.416c0.563,0,1.121,0.072,1.664,0.236   c0.508,0.126,0.979,0.361,1.395,0.687c0.416,0.307,0.76,0.688,1.014,1.139c0.271,0.508,0.434,1.051,0.471,1.629h-2.262   L317.866,397.977L317.866,397.977z"></path>
	<path fill="#ffffff" d="M329.937,402.465c-0.02,0.199,0.018,0.398,0.107,0.578c0.109,0.127,0.254,0.199,0.436,0.182h0.234   c0.109,0,0.199-0.02,0.289-0.037v1.539c-0.072,0.018-0.18,0.055-0.289,0.09l-0.379,0.09c-0.129,0.02-0.271,0.037-0.398,0.055   c-0.109,0.02-0.236,0.02-0.344,0.02c-0.4,0.018-0.797-0.092-1.141-0.271c-0.289-0.182-0.488-0.49-0.58-0.979   c-0.451,0.434-1.012,0.762-1.629,0.924c-0.596,0.18-1.23,0.271-1.863,0.271c-0.434,0-0.887-0.055-1.303-0.182   c-0.396-0.107-0.777-0.289-1.104-0.543c-0.324-0.234-0.58-0.543-0.76-0.904c-0.199-0.398-0.289-0.85-0.289-1.303   c-0.018-0.525,0.09-1.051,0.342-1.52c0.219-0.381,0.525-0.688,0.906-0.904c0.381-0.236,0.814-0.4,1.266-0.473   c0.453-0.09,0.924-0.18,1.395-0.234c0.398-0.072,0.797-0.127,1.158-0.162c0.326-0.037,0.652-0.092,0.977-0.182   c0.254-0.055,0.471-0.182,0.652-0.361c0.182-0.199,0.271-0.471,0.252-0.742c0-0.254-0.07-0.506-0.199-0.707   c-0.125-0.18-0.307-0.344-0.523-0.416c-0.217-0.107-0.453-0.162-0.688-0.18c-0.236-0.037-0.471-0.055-0.707-0.055   c-0.543-0.02-1.084,0.109-1.537,0.398c-0.398,0.271-0.652,0.723-0.688,1.213h-2.227c0.018-0.58,0.182-1.141,0.471-1.631   c0.254-0.416,0.615-0.778,1.031-1.03c0.453-0.272,0.941-0.452,1.447-0.544c0.543-0.108,1.104-0.145,1.648-0.162   c0.488,0,0.977,0.054,1.465,0.162c0.471,0.092,0.904,0.271,1.303,0.525c0.381,0.217,0.688,0.525,0.924,0.906   c0.252,0.396,0.379,0.867,0.361,1.338v5.213h-0.037L329.937,402.465L329.937,402.465z M327.692,399.623   c-0.381,0.254-0.814,0.381-1.268,0.398c-0.488,0.035-0.994,0.107-1.484,0.199c-0.234,0.037-0.469,0.09-0.688,0.18   c-0.197,0.074-0.396,0.164-0.578,0.291c-0.182,0.125-0.309,0.289-0.398,0.471c-0.107,0.234-0.162,0.488-0.162,0.74   c0,0.236,0.072,0.453,0.197,0.635c0.146,0.162,0.328,0.289,0.527,0.398c0.217,0.107,0.434,0.162,0.65,0.197   c0.217,0.037,0.434,0.055,0.65,0.055c0.271,0,0.545-0.035,0.797-0.09c0.289-0.072,0.561-0.182,0.814-0.344   c0.254-0.145,0.451-0.344,0.633-0.58c0.182-0.271,0.271-0.578,0.254-0.887L327.692,399.623L327.692,399.623z"></path>
	<path fill="#ffffff" d="M331.872,394.592h2.08v1.972h0.037c0.072-0.289,0.199-0.561,0.381-0.795   c0.199-0.272,0.434-0.508,0.688-0.724c0.271-0.217,0.578-0.381,0.904-0.525c0.326-0.127,0.67-0.182,1.014-0.182   c0.182,0,0.361,0,0.543,0.019c0.09,0.019,0.18,0.019,0.307,0.036v2.154c-0.162-0.018-0.324-0.055-0.469-0.072   c-0.182-0.018-0.326-0.037-0.473-0.037c-0.361,0-0.74,0.072-1.066,0.236c-0.344,0.162-0.633,0.379-0.887,0.67   c-0.271,0.326-0.471,0.688-0.578,1.084c-0.145,0.473-0.219,0.979-0.199,1.484v4.832h-2.227v-10.152H331.872z"></path>
	<path fill="#ffffff" d="M339.87,400.221c0,0.398,0.072,0.777,0.182,1.139c0.109,0.346,0.271,0.67,0.488,0.979   c0.234,0.271,0.508,0.508,0.834,0.668c0.379,0.182,0.795,0.271,1.211,0.254c0.652,0,1.176-0.127,1.574-0.414   c0.416-0.326,0.742-0.762,0.904-1.268h2.1c-0.107,0.523-0.307,1.014-0.615,1.465c-0.271,0.436-0.615,0.797-1.031,1.086   c-0.416,0.309-0.869,0.525-1.375,0.67c-1.213,0.361-2.498,0.307-3.674-0.162c-0.598-0.254-1.121-0.615-1.557-1.104   c-0.434-0.49-0.76-1.068-0.977-1.701c-0.219-0.689-0.326-1.432-0.326-2.154c-0.018-0.705,0.09-1.395,0.326-2.063   c0.217-0.635,0.561-1.213,0.994-1.719c0.436-0.49,0.959-0.887,1.539-1.16c1.338-0.597,2.859-0.578,4.18,0.055   c0.615,0.326,1.158,0.779,1.574,1.339s0.725,1.213,0.904,1.881c0.201,0.725,0.254,1.467,0.164,2.209H339.87L339.87,400.221z    M345.083,398.756c-0.02-0.346-0.09-0.707-0.236-1.033c-0.107-0.326-0.289-0.615-0.523-0.85c-0.219-0.254-0.49-0.453-0.779-0.58   c-0.307-0.162-0.67-0.234-1.014-0.234c-0.361,0-0.725,0.072-1.066,0.199c-0.309,0.125-0.598,0.326-0.814,0.561   c-0.236,0.234-0.416,0.525-0.543,0.852c-0.127,0.342-0.219,0.705-0.236,1.066L345.083,398.756z"></path>
</g>
</svg>
