<?xml version="1.0" encoding="UTF-8"?>
<!-- Generator: Adobe Illustrator 27.2.0, SVG Export Plug-In . SVG Version: 6.00 Build 0)  -->
<svg xmlns="http://www.w3.org/2000/svg" xmlns:xlink="http://www.w3.org/1999/xlink" version="1.1" id="Layer_1" x="0px" y="0px" viewBox="0 0 1080 1080" style="enable-background:new 0 0 1080 1080;" xml:space="preserve">
<style type="text/css">
	.st0{fill:#DFE4EA;}
	.st1{fill:#CCCCCC;}
	.st2{fill:#DDDDDD;}
	.st3{fill:#3B3B3B;}
	.st4{fill:#6C6C6C;}
	.st5{fill:#5B5B5B;}
	.st6{fill:#ABABAB;}
	.st7{fill:#6F6F6F;}
	.st8{fill:#B1B1B1;}
	.st9{fill:#6B6B6B;}
	.st10{fill:#9E9E9E;}
	.st11{fill:#5F5F5F;}
</style>
<g>
	<path d="M562,862.7c-15.9,0-31.9,0-47.8,0c-7-1.2-14.1-0.5-21.1-1.5c-30.4-4.5-59.6-12.9-87.7-25.8c-29.2-13.4-55.9-30.5-79.8-51.8   c-26.8-23.8-49.6-51-67.3-82.3c-19.8-35-33.4-72.1-39.3-112c-1.1-7.4-0.4-15-1.7-22.3c0-16.8,0-33.5,0-50.3   c1.4-8,0.7-16.2,1.8-24.2c3.9-28.6,12.3-55.9,23.9-82.4c13.3-30.2,30.8-57.6,52.5-82.3c24.7-28.1,53.2-51.4,85.9-69.8   c37.4-21,77.4-34,119.9-38.9c16.4-1.9,33-1.7,49.5-1c4,0.8,8,0.2,12,0.4c26.4,0.8,51.9,6.6,76.9,14.5c42,13.3,79.5,34.7,112.4,63.7   c29.9,26.4,54.8,57,73.4,92.6c18,34.4,29.5,70.8,34.5,109.1c2.3,17.8,2.2,35.8,1.7,53.9c-0.4,17-1.5,33.9-4.9,50.6   c-10.7,52.9-32.4,100.9-66.9,142.5c-41.1,49.6-92.3,84.7-154.1,104.1c-23.5,7.4-47.4,12.2-72.1,12.5   C563.1,862.1,562.5,862.3,562,862.7z"></path>
	<path class="st0" d="M705.3,509.2c1.4,8.3,3.2,16.5,2.7,25c0.8,7.2,0.9,14.4,0,21.6c-2.2,43.4-16,82-47.5,112.9   c-21.6,21.3-47.6,34.4-77.3,40.5c-9.5,1.9-19,3.2-28.6,4c-7.6,0.6-15.2,0.7-22.9,0c-46.9-2.6-85.5-22.5-117.1-56.6   c-22.2-23.9-35.9-52.4-42.2-84.3c-1.3-6.5-3.5-13.3-1.6-20.3c-1.5-7.6,0.3-15.3-1-22.8c6.2-86.1,75.1-156.1,161.9-161.2   c7.6-0.6,15.2-0.7,22.9,0c38.1,3,72,16.2,100.8,41.7c2.3,2,3.1,3.2,0.4,5.8c-14.3,14-28.4,28.1-42.4,42.4c-3.1,3.1-5.1,2.1-7.9-0.3   c-14.6-12.8-32-19-50.9-21.6c-7.7-0.8-15.3-0.7-23,0c-27.2,2.3-48.8,15.3-66.3,35.4c-15,17.2-24.1,37.2-25.5,60.3   c-0.7,5.9-0.8,11.8,0,17.8c3.2,48.7,44.8,92.2,93.1,95.8c7.2,0.7,14.5,0.8,21.7-0.1c32.6-3.2,58.6-16.9,74.8-46.5   c3.7-6.7,5.6-14.1,7.1-21.6c-1-3.5-3.8-1.8-5.8-1.8c-27-0.1-54-0.1-81-0.1c-2.3,0-4.6,0.6-6.8-0.6c-0.5-21.8-0.8-43.7,0.1-65.5   c1.8-0.9,3.7-0.5,5.6-0.5c50.4,0,100.8,0,151.2,0C701.6,508.6,703.6,508.1,705.3,509.2z"></path>
	<path class="st1" d="M705.3,509.2c-54,0-108,0-162,0c-0.5-0.3-0.6-0.5-0.5-0.8c0.2-0.3,0.3-0.4,0.5-0.4c52.8,0,105.6-0.1,158.4-0.1   C702.9,508,704.7,507,705.3,509.2z"></path>
	<path class="st2" d="M543.3,574.6c29.4,0,58.8,0,88.2,0.2c1.6,0,5.2-2.2,5,2.4c-1.7-2.4-4.2-1.2-6.3-1.2c-29-0.1-57.9-0.1-86.9-0.2   c-0.5-0.3-0.6-0.6-0.4-0.8C543,574.7,543.2,574.6,543.3,574.6z"></path>
	<path class="st3" d="M543.3,574.6c-0.2,0.4-0.2,0.8,0,1.2c-1.7-0.8-1.4-2.4-1.4-3.8c0-20,0-40.1,0-60.1c0-1.4-0.2-3,1.4-3.8   c-0.2,0.4-0.1,0.8,0,1.2C543.3,531,543.3,552.8,543.3,574.6z"></path>
	<path class="st4" d="M554.6,368.1c-7.6,0-15.2,0-22.9,0C539.3,366.3,546.9,366.3,554.6,368.1z"></path>
	<path class="st5" d="M531.6,436c7.7-1.8,15.3-1.8,23,0C547,436.1,539.3,436,531.6,436z"></path>
	<path class="st6" d="M369.8,529.2c2.2,7.5,0.5,15.2,1,22.8C368.1,544.5,370,536.8,369.8,529.2z"></path>
	<path class="st7" d="M531.7,713.2c7.6,0,15.2,0,22.9,0C547,714.9,539.3,714.9,531.7,713.2z"></path>
	<path class="st8" d="M708,555.8c0-7.2,0-14.4,0-21.6C710,541.4,710,548.6,708,555.8z"></path>
	<path class="st9" d="M554.6,645.2c-7.2,1.8-14.5,1.8-21.7,0.1C540.1,645.2,547.4,645.2,554.6,645.2z"></path>
	<path class="st10" d="M439.8,549.5c-1.8-5.9-1.8-11.8,0-17.8C439.8,537.7,439.8,543.6,439.8,549.5z"></path>
	<path class="st11" d="M550.6,218.8c4.3-0.4,8.6-0.6,12.8,0.9C559.1,220.1,554.8,220.3,550.6,218.8z"></path>
</g>
</svg>
