<?xml version="1.0" encoding="UTF-8"?>
<svg xmlns="http://www.w3.org/2000/svg" id="Layer_1" data-name="Layer 1" viewBox="0 0 806.14 639.74">
  <defs>
    <style>.cls-1{fill:#ed6b52;}.cls-2{fill:#f7c13f;}.cls-3{fill:#4265ad;}.cls-4{fill:#fff;}.cls-5{fill:#010101;}</style>
  </defs>
  <circle class="cls-1" cx="732.89" cy="36.94" r="3.19"></circle>
  <circle class="cls-2" cx="694.46" cy="36.94" r="3.19"></circle>
  <circle class="cls-2" cx="656.02" cy="36.94" r="3.19"></circle>
  <circle class="cls-1" cx="617.59" cy="36.94" r="3.19"></circle>
  <circle class="cls-1" cx="579.15" cy="36.94" r="3.19"></circle>
  <circle class="cls-1" cx="540.72" cy="36.94" r="3.19"></circle>
  <circle class="cls-1" cx="502.29" cy="36.94" r="3.19"></circle>
  <circle class="cls-1" cx="719.23" cy="71.11" r="3.19"></circle>
  <circle class="cls-2" cx="680.79" cy="71.11" r="3.19"></circle>
  <circle class="cls-1" cx="642.36" cy="71.11" r="3.19"></circle>
  <circle class="cls-1" cx="603.92" cy="71.11" r="3.19"></circle>
  <circle class="cls-1" cx="565.49" cy="71.11" r="3.19"></circle>
  <circle class="cls-1" cx="527.05" cy="71.11" r="3.19"></circle>
  <circle class="cls-1" cx="488.62" cy="71.11" r="3.19"></circle>
  <circle class="cls-1" cx="732.89" cy="109.54" r="3.19"></circle>
  <circle class="cls-2" cx="694.46" cy="109.54" r="3.19"></circle>
  <circle class="cls-2" cx="656.02" cy="109.54" r="3.19"></circle>
  <circle class="cls-1" cx="617.59" cy="109.54" r="3.19"></circle>
  <circle class="cls-1" cx="579.15" cy="109.54" r="3.19"></circle>
  <circle class="cls-1" cx="540.72" cy="109.54" r="3.19"></circle>
  <circle class="cls-1" cx="502.29" cy="109.54" r="3.19"></circle>
  <circle class="cls-1" cx="719.23" cy="144.13" r="3.19"></circle>
  <circle class="cls-2" cx="680.79" cy="144.13" r="3.19"></circle>
  <circle class="cls-1" cx="642.36" cy="144.13" r="3.19"></circle>
  <circle class="cls-1" cx="603.92" cy="144.13" r="3.19"></circle>
  <circle class="cls-1" cx="565.49" cy="144.13" r="3.19"></circle>
  <circle class="cls-1" cx="527.05" cy="144.13" r="3.19"></circle>
  <circle class="cls-1" cx="488.62" cy="144.13" r="3.19"></circle>
  <circle class="cls-1" cx="732.89" cy="182.57" r="3.19"></circle>
  <circle class="cls-2" cx="694.46" cy="182.57" r="3.19"></circle>
  <circle class="cls-2" cx="656.02" cy="182.57" r="3.19"></circle>
  <circle class="cls-1" cx="617.59" cy="182.57" r="3.19"></circle>
  <circle class="cls-1" cx="579.15" cy="182.57" r="3.19"></circle>
  <circle class="cls-1" cx="540.72" cy="182.57" r="3.19"></circle>
  <circle class="cls-1" cx="502.29" cy="182.57" r="3.19"></circle>
  <circle class="cls-1" cx="719.23" cy="216.73" r="3.19"></circle>
  <circle class="cls-2" cx="680.79" cy="216.73" r="3.19"></circle>
  <circle class="cls-1" cx="642.36" cy="216.73" r="3.19"></circle>
  <circle class="cls-1" cx="603.92" cy="216.73" r="3.19"></circle>
  <circle class="cls-1" cx="565.49" cy="216.73" r="3.19"></circle>
  <circle class="cls-1" cx="527.05" cy="216.73" r="3.19"></circle>
  <circle class="cls-1" cx="488.62" cy="216.73" r="3.19"></circle>
  <circle class="cls-1" cx="732.89" cy="255.17" r="3.19"></circle>
  <circle class="cls-2" cx="694.46" cy="255.17" r="3.19"></circle>
  <circle class="cls-1" cx="656.02" cy="255.17" r="3.19"></circle>
  <circle class="cls-1" cx="617.59" cy="255.17" r="3.19"></circle>
  <circle class="cls-1" cx="579.15" cy="255.17" r="3.19"></circle>
  <circle class="cls-1" cx="540.72" cy="255.17" r="3.19"></circle>
  <circle class="cls-1" cx="502.29" cy="255.17" r="3.19"></circle>
  <circle class="cls-1" cx="272.45" cy="374.17" r="3.19"></circle>
  <circle class="cls-1" cx="234.02" cy="374.17" r="3.19"></circle>
  <circle class="cls-1" cx="195.58" cy="374.17" r="3.19"></circle>
  <circle class="cls-1" cx="157.15" cy="374.17" r="3.19"></circle>
  <circle class="cls-1" cx="118.71" cy="374.17" r="3.19"></circle>
  <circle class="cls-1" cx="80.28" cy="374.17" r="3.19"></circle>
  <circle class="cls-1" cx="41.84" cy="374.17" r="3.19"></circle>
  <circle class="cls-1" cx="258.79" cy="408.34" r="3.19"></circle>
  <circle class="cls-1" cx="220.35" cy="408.34" r="3.19"></circle>
  <circle class="cls-1" cx="181.92" cy="408.34" r="3.19"></circle>
  <circle class="cls-1" cx="143.48" cy="408.34" r="3.19"></circle>
  <circle class="cls-1" cx="105.05" cy="408.34" r="3.19"></circle>
  <circle class="cls-1" cx="66.61" cy="408.34" r="3.19"></circle>
  <circle class="cls-1" cx="28.18" cy="408.34" r="3.19"></circle>
  <circle class="cls-1" cx="272.45" cy="446.77" r="3.19"></circle>
  <circle class="cls-1" cx="234.02" cy="446.77" r="3.19"></circle>
  <circle class="cls-1" cx="195.58" cy="446.77" r="3.19"></circle>
  <circle class="cls-1" cx="157.15" cy="446.77" r="3.19"></circle>
  <circle class="cls-1" cx="118.71" cy="446.77" r="3.19"></circle>
  <circle class="cls-1" cx="80.28" cy="446.77" r="3.19"></circle>
  <circle class="cls-1" cx="41.84" cy="446.77" r="3.19"></circle>
  <circle class="cls-1" cx="258.79" cy="481.37" r="3.19"></circle>
  <circle class="cls-1" cx="220.35" cy="481.37" r="3.19"></circle>
  <circle class="cls-1" cx="181.92" cy="481.37" r="3.19"></circle>
  <circle class="cls-1" cx="143.48" cy="481.37" r="3.19"></circle>
  <circle class="cls-1" cx="105.05" cy="481.37" r="3.19"></circle>
  <circle class="cls-1" cx="66.61" cy="481.37" r="3.19"></circle>
  <circle class="cls-1" cx="28.18" cy="481.37" r="3.19"></circle>
  <circle class="cls-1" cx="272.45" cy="519.8" r="3.19"></circle>
  <circle class="cls-1" cx="234.02" cy="519.8" r="3.19"></circle>
  <circle class="cls-1" cx="195.58" cy="519.8" r="3.19"></circle>
  <circle class="cls-1" cx="157.15" cy="519.8" r="3.19"></circle>
  <circle class="cls-1" cx="118.71" cy="519.8" r="3.19"></circle>
  <circle class="cls-1" cx="80.28" cy="519.8" r="3.19"></circle>
  <circle class="cls-1" cx="41.84" cy="519.8" r="3.19"></circle>
  <circle class="cls-1" cx="258.79" cy="553.96" r="3.19"></circle>
  <circle class="cls-1" cx="220.35" cy="553.96" r="3.19"></circle>
  <circle class="cls-1" cx="181.92" cy="553.96" r="3.19"></circle>
  <circle class="cls-1" cx="143.48" cy="553.96" r="3.19"></circle>
  <circle class="cls-1" cx="105.05" cy="553.96" r="3.19"></circle>
  <circle class="cls-1" cx="66.61" cy="553.96" r="3.19"></circle>
  <circle class="cls-1" cx="28.18" cy="553.96" r="3.19"></circle>
  <circle class="cls-1" cx="272.45" cy="592.4" r="3.19"></circle>
  <circle class="cls-1" cx="234.02" cy="592.4" r="3.19"></circle>
  <circle class="cls-1" cx="195.58" cy="592.4" r="3.19"></circle>
  <circle class="cls-1" cx="157.15" cy="592.4" r="3.19"></circle>
  <circle class="cls-1" cx="118.71" cy="592.4" r="3.19"></circle>
  <circle class="cls-1" cx="80.28" cy="592.4" r="3.19"></circle>
  <circle class="cls-1" cx="41.84" cy="592.4" r="3.19"></circle>
  <rect class="cls-2" x="335.34" y="130.7" width="380.99" height="380.99" rx="61.28" transform="translate(1051.67 642.39) rotate(-180)"></rect>
  <rect class="cls-1" x="100.83" y="99.08" width="212.35" height="212.35" rx="31.6" transform="translate(414.01 410.52) rotate(-180)"></rect>
  <rect class="cls-3" x="105.1" y="329.77" width="212.35" height="212.35" rx="31.6" transform="translate(422.56 871.88) rotate(-180)"></rect>
  <path class="cls-4" d="M285.61,395.06a5.84,5.84,0,0,0-1.72-3.94,5.93,5.93,0,0,0-4.32-1.71,11.08,11.08,0,0,0-10.69,11.4l.36,11.08-2.06,8.32c-.23,0-.46-.07-.7-.07a7.77,7.77,0,0,0-5.54,2.29l-12.38,12.38-4.48.78a12.67,12.67,0,0,0-6.81,3.52l-8.39,8.39a12.62,12.62,0,0,0-3.71,8.66l-.33,14.57a8.86,8.86,0,0,0-4.06,2.26,9,9,0,0,0-2.74,6.37l-.19,18.21a9.08,9.08,0,0,0,9,9.17l30.22.32h.1a9.06,9.06,0,0,0,9.06-9l.2-18.21a9.09,9.09,0,0,0-6.6-8.82l.16-1.13a15.25,15.25,0,0,1,4.33-8.59l14.17-14.17a21.53,21.53,0,0,0,6.19-12.95l1.51-14.29a9.24,9.24,0,0,0,.17-1.61v0h0c0-.07,0-.14,0-.21ZM263.1,479.84l-.2,18.22a5.67,5.67,0,0,1-1.74,4.05,5.83,5.83,0,0,1-4.09,1.65l-30.21-.32a5.79,5.79,0,0,1-5.71-5.83l.2-18.21a5.79,5.79,0,0,1,5.76-5.71h.07l30.21.32a5.79,5.79,0,0,1,5.71,5.83Zm13-35L262,459a18.49,18.49,0,0,0-5.25,10.43l-.18,1.26-28.37-.3.32-14.17a9.33,9.33,0,0,1,2.74-6.4l8.4-8.39a9.3,9.3,0,0,1,5-2.6l5-.86.15-.07a1.39,1.39,0,0,0,.32-.12,1.59,1.59,0,0,0,.27-.18c.05,0,.1-.05.14-.09l12.75-12.76a4.67,4.67,0,0,1,6.41,0,4.55,4.55,0,0,1,0,6.41L255,445.81a1.66,1.66,0,0,0,1.17,2.82,1.63,1.63,0,0,0,1.17-.49L272,433.5a7.82,7.82,0,0,0,0-11.07,7.53,7.53,0,0,0-1.68-1.24l2.16-8.73a1.77,1.77,0,0,0,0-.23,1.43,1.43,0,0,0,0-.22l-.37-11.3a7.79,7.79,0,0,1,7.49-8,2.61,2.61,0,0,1,1.89.75,2.51,2.51,0,0,1,.75,1.72l.73,22.89-1.66,15.81a18.27,18.27,0,0,1-5.25,11Z"></path>
  <path class="cls-4" d="M260.53,482.13a4.28,4.28,0,1,1-4.28-4.29,4.28,4.28,0,0,1,4.28,4.29"></path>
  <path class="cls-4" d="M207.68,473a8.88,8.88,0,0,0-4.07-2.25l-.32-14.58a12.64,12.64,0,0,0-3.71-8.65l-8.39-8.4a12.77,12.77,0,0,0-6.8-3.51l-4.5-.78-12.37-12.38a7.78,7.78,0,0,0-5.54-2.29c-.24,0-.47.05-.71.07l-2.05-8.32.36-11.08a11.09,11.09,0,0,0-10.71-11.41,6,6,0,0,0-4.3,1.72,5.8,5.8,0,0,0-1.72,3.95l-.73,23c0,.07,0,.13,0,.2h0a8.07,8.07,0,0,0,.17,1.64l1.51,14.28A21.5,21.5,0,0,0,150,447.17l14.17,14.18a15.18,15.18,0,0,1,4.32,8.57l.17,1.15a9.07,9.07,0,0,0-6.6,8.81l.19,18.21a9.08,9.08,0,0,0,9.07,9h.1l30.21-.32a9.1,9.1,0,0,0,9-9.16l-.2-18.22a9,9,0,0,0-2.73-6.38Zm-41.17-14-14.18-14.17a18.25,18.25,0,0,1-5.24-11l-1.67-15.81.73-22.88a2.56,2.56,0,0,1,2.62-2.47,7.78,7.78,0,0,1,7.51,8l-.37,11.3a1.85,1.85,0,0,0,0,.23,1.62,1.62,0,0,0,0,.22l2.16,8.73a7.76,7.76,0,0,0-1.68,1.24,7.84,7.84,0,0,0,0,11.07l14.64,14.65a1.68,1.68,0,0,0,1.17.48,1.65,1.65,0,0,0,1.17-2.82l-14.64-14.64a4.53,4.53,0,0,1,0-6.41,4.65,4.65,0,0,1,6.4,0l12.75,12.76a1.1,1.1,0,0,0,.14.09,1.73,1.73,0,0,0,.28.19,1.66,1.66,0,0,0,.31.12c.06,0,.1.05.16.06l5,.87a9.3,9.3,0,0,1,5,2.59l8.4,8.39a9.37,9.37,0,0,1,2.74,6.4l.32,14.17-28.36.31-.19-1.27A18.55,18.55,0,0,0,166.51,459Zm39.14,42.69a5.76,5.76,0,0,1-4.05,1.74l-30.22.32a5.62,5.62,0,0,1-4.09-1.65,5.76,5.76,0,0,1-1.74-4.05l-.19-18.22a5.76,5.76,0,0,1,5.7-5.82l30.22-.33a5.86,5.86,0,0,1,4.09,1.65,5.74,5.74,0,0,1,1.74,4.06l.19,18.21a5.73,5.73,0,0,1-1.65,4.09Z"></path>
  <path class="cls-4" d="M176.49,482.13a4.29,4.29,0,1,1-4.28-4.29,4.28,4.28,0,0,1,4.28,4.29"></path>
  <path class="cls-4" d="M222,430.31V425a28.94,28.94,0,0,0,6.85-2.83l3.79,3.79a4.41,4.41,0,0,0,6.25,0l4.68-4.67a4.43,4.43,0,0,0,0-6.25l-3.8-3.8a27.9,27.9,0,0,0,2.83-6.84h5.36a4.44,4.44,0,0,0,4.43-4.43v-6.59a4.43,4.43,0,0,0-4.43-4.42h-5.36a28.36,28.36,0,0,0-2.83-6.85l3.8-3.8a4.43,4.43,0,0,0,0-6.25l-4.68-4.67a4.43,4.43,0,0,0-6.25,0l-3.79,3.79A28.94,28.94,0,0,0,222,368.3v-5.36a4.44,4.44,0,0,0-4.42-4.43h-6.6a4.43,4.43,0,0,0-4.42,4.43v5.36a28.94,28.94,0,0,0-6.85,2.83l-3.79-3.8a4.43,4.43,0,0,0-6.25,0L184.94,372a4.43,4.43,0,0,0,0,6.25l3.8,3.8a28.32,28.32,0,0,0-2.84,6.84h-5.36a4.43,4.43,0,0,0-4.42,4.43v6.59a4.43,4.43,0,0,0,4.42,4.43h5.36a28.7,28.7,0,0,0,2.83,6.84l-3.79,3.8a4.41,4.41,0,0,0,0,6.25l4.67,4.67a4.43,4.43,0,0,0,6.25,0l3.8-3.79A28.7,28.7,0,0,0,206.5,425v5.36a4.43,4.43,0,0,0,4.42,4.43h6.59a4.43,4.43,0,0,0,4.43-4.43Zm-3.3,0a1.11,1.11,0,0,1-1.12,1.13h-6.6a1.11,1.11,0,0,1-1.12-1.13v-6.62c0-.06,0-.1,0-.15a1.21,1.21,0,0,0-.07-.33,1.36,1.36,0,0,0-.11-.28,1.67,1.67,0,0,0-.17-.26,1.61,1.61,0,0,0-.22-.23,1.38,1.38,0,0,0-.25-.17,1.69,1.69,0,0,0-.31-.13l-.13-.07a25.21,25.21,0,0,1-8.24-3.4s-.09,0-.14-.06a1.66,1.66,0,0,0-.31-.12,1.34,1.34,0,0,0-.61-.05,1.55,1.55,0,0,0-.31.06,1.39,1.39,0,0,0-.28.12,1.26,1.26,0,0,0-.28.19.83.83,0,0,0-.12.08l-4.7,4.69a1.11,1.11,0,0,1-1.58,0l-4.67-4.67a1.11,1.11,0,0,1-.33-.79,1.1,1.1,0,0,1,.33-.79l4.69-4.7s.05-.08.09-.12a1.67,1.67,0,0,0,.18-.28,1.39,1.39,0,0,0,.12-.28,1.55,1.55,0,0,0,.06-.31,1.63,1.63,0,0,0,0-.31,1.45,1.45,0,0,0-.06-.3,1.66,1.66,0,0,0-.12-.31c0-.05,0-.1-.06-.15a25.24,25.24,0,0,1-3.4-8.23l-.07-.14a1.3,1.3,0,0,0-.13-.3,2.33,2.33,0,0,0-.17-.26,2.09,2.09,0,0,0-.22-.2,1.73,1.73,0,0,0-.28-.19l-.26-.1a1.36,1.36,0,0,0-.35-.07.7.7,0,0,0-.14,0h-6.63a1.11,1.11,0,0,1-1.12-1.13v-6.59a1.11,1.11,0,0,1,1.12-1.12h6.63a1.54,1.54,0,0,0,.6-.13,1.4,1.4,0,0,0,.17-.09,1.9,1.9,0,0,0,.33-.22l.15-.17a1.21,1.21,0,0,0,.2-.3,2.29,2.29,0,0,0,.1-.23c0-.06.05-.1.06-.16a25.26,25.26,0,0,1,3.41-8.23,1.21,1.21,0,0,0,.05-.14,1.66,1.66,0,0,0,.12-.31,1.55,1.55,0,0,0,.06-.31,1.6,1.6,0,0,0,0-.31c0-.1,0-.2-.06-.3a1.85,1.85,0,0,0-.13-.29,1.27,1.27,0,0,0-.18-.27l-.08-.13-4.7-4.69a1.15,1.15,0,0,1,0-1.59l4.68-4.67a1.11,1.11,0,0,1,1.58,0l4.69,4.69,0,0a1.64,1.64,0,0,0,.48.31l.12.05a2.07,2.07,0,0,0,.55.11h0a1.74,1.74,0,0,0,.55-.11l.16-.07.18-.08a25.26,25.26,0,0,1,8.23-3.41c.05,0,.09-.05.14-.06a1.38,1.38,0,0,0,.3-.14,1.17,1.17,0,0,0,.26-.17,1.45,1.45,0,0,0,.21-.22,2,2,0,0,0,.18-.26,1.45,1.45,0,0,0,.11-.29,1.6,1.6,0,0,0,.07-.33s0-.09,0-.14v-6.63a1.11,1.11,0,0,1,1.12-1.12h6.59a1.11,1.11,0,0,1,1.13,1.12v6.63a.7.7,0,0,0,0,.14,1.75,1.75,0,0,0,.06.33,2.49,2.49,0,0,0,.11.29,2,2,0,0,0,.18.26,2.18,2.18,0,0,0,.21.22,1.45,1.45,0,0,0,.26.17,1.64,1.64,0,0,0,.3.14s.09.05.14.06a25.26,25.26,0,0,1,8.23,3.41l.19.08.15.07a1.74,1.74,0,0,0,.55.11h0a1.68,1.68,0,0,0,.54-.11l.12-.05a1.72,1.72,0,0,0,.48-.31l0,0,4.69-4.69a1.11,1.11,0,0,1,1.58,0l4.68,4.67a1.15,1.15,0,0,1,0,1.59l-4.69,4.69s-.05.09-.09.13a1.27,1.27,0,0,0-.18.27,1.78,1.78,0,0,0-.12.29,1.59,1.59,0,0,0-.06.3,1.63,1.63,0,0,0,0,.31,1.7,1.7,0,0,0,.06.31,1.66,1.66,0,0,0,.12.31,1.47,1.47,0,0,0,.06.14,25.24,25.24,0,0,1,3.4,8.23c0,.06.05.1.07.16a1.09,1.09,0,0,0,.09.23,1.61,1.61,0,0,0,.21.3l.15.17a3.62,3.62,0,0,0,.32.22,1,1,0,0,0,.18.09,1.48,1.48,0,0,0,.59.12h6.63a1.12,1.12,0,0,1,1.13,1.13v6.59a1.12,1.12,0,0,1-1.13,1.13h-6.63l-.14,0a1.76,1.76,0,0,0-.33.07,1.36,1.36,0,0,0-.28.11,1.59,1.59,0,0,0-.27.18,2.18,2.18,0,0,0-.22.21,1.45,1.45,0,0,0-.17.26,1.64,1.64,0,0,0-.14.3c0,.05,0,.09-.06.14a25.26,25.26,0,0,1-3.41,8.23c0,.05,0,.1,0,.14a1.66,1.66,0,0,0-.12.31,1.55,1.55,0,0,0-.06.31,1.63,1.63,0,0,0,0,.31,1.07,1.07,0,0,0,.06.3,1.78,1.78,0,0,0,.12.29,1.27,1.27,0,0,0,.18.27s0,.09.09.13l4.69,4.69a1.1,1.1,0,0,1,.32.79,1.13,1.13,0,0,1-.32.8l-4.68,4.67a1.11,1.11,0,0,1-1.58,0l-4.69-4.69s-.09-.05-.13-.09a1.34,1.34,0,0,0-.28-.18,1.59,1.59,0,0,0-.27-.12,1.2,1.2,0,0,0-.32-.06,1,1,0,0,0-.3,0,1.55,1.55,0,0,0-.31.06,1.66,1.66,0,0,0-.31.12,1.21,1.21,0,0,0-.14.05,25.26,25.26,0,0,1-8.23,3.41c-.05,0-.09.05-.14.06a1.64,1.64,0,0,0-.3.14,1.34,1.34,0,0,0-.47.39,2,2,0,0,0-.18.26,2.49,2.49,0,0,0-.11.29,1.65,1.65,0,0,0-.06.32,1,1,0,0,0,0,.15v6.63Z"></path>
  <path class="cls-4" d="M231.8,396.62a17.58,17.58,0,1,0-17.57,17.58A17.59,17.59,0,0,0,231.8,396.62ZM214.23,410.9a14.28,14.28,0,1,1,14.27-14.27A14.28,14.28,0,0,1,214.23,410.9Z"></path>
  <path class="cls-5" d="M268.93,199.34a10.61,10.61,0,0,0-9.55,6.48H221.69a4.34,4.34,0,0,0-3.76,3.24l-7.5,27.46-18.08-93.3a3.69,3.69,0,0,0-3.75-3.07,3.85,3.85,0,0,0-3.76,3.24l-14.15,73L161,186.89a4.06,4.06,0,0,0-3.42-2.73,3.56,3.56,0,0,0-3.75,1.7l-11.08,20H129.58a4.28,4.28,0,0,0,0,8.53h15.35a3.75,3.75,0,0,0,3.41-2l7.85-14.5L168,233.11a3.85,3.85,0,0,0,3.92,2.73,4,4,0,0,0,3.58-3.07l13.14-67.89L206,255.11c.35,1.71,1.88,3.58,3.76,3.58h.17a4.34,4.34,0,0,0,3.75-3.24l10.92-41.1h35.3a10.07,10.07,0,0,0,9,5.63,10.42,10.42,0,0,0,10.24-10.41,10.27,10.27,0,0,0-10.24-10.23Z"></path>
  <path class="cls-5" d="M527.5,188.22a46.64,46.64,0,1,0,46.65,46.64A46.7,46.7,0,0,0,527.5,188.22Zm0,10.66a36,36,0,1,1-36,36A35.9,35.9,0,0,1,527.5,198.88Zm-99.09,24.17a40.25,40.25,0,1,0,40.25,40.24,40.33,40.33,0,0,0-40.25-40.24Zm198.18,0a40.25,40.25,0,1,0,40.26,40.24,40.32,40.32,0,0,0-40.26-40.24Zm-198.18,10.7a29.54,29.54,0,1,1-29.55,29.54A29.46,29.46,0,0,1,428.41,233.75Zm198.18,0a29.54,29.54,0,1,1-29.54,29.54A29.46,29.46,0,0,1,626.59,233.75ZM499.18,298.68a30.76,30.76,0,0,0-30.35,26.15A26.45,26.45,0,0,0,452.34,319H404.47a26.81,26.81,0,0,0-26.77,26.77v88.87A5.35,5.35,0,0,0,383,440H672a5.35,5.35,0,0,0,5.33-5.37V345.77A26.82,26.82,0,0,0,650.53,319H602.66a26.57,26.57,0,0,0-16.5,5.83,30.76,30.76,0,0,0-30.35-26.13Zm0,10.71H521.5v44.78A5.3,5.3,0,0,0,523,358a5.36,5.36,0,0,0,9.18-3.86V309.39h23.61a19.85,19.85,0,0,1,20,20V429.3H479.12V329.41a19.89,19.89,0,0,1,20.06-20Zm-94.71,20.26h47.87a16,16,0,0,1,16.11,16.11V429.3H388.39V345.76a15.94,15.94,0,0,1,16.08-16.11Zm198.18,0h47.87a15.94,15.94,0,0,1,16.08,16.11V429.3H586.54V345.76a16,16,0,0,1,16.11-16.11Z"></path>
</svg>
