<?xml version="1.0" encoding="UTF-8"?>
<svg xmlns="http://www.w3.org/2000/svg" xmlns:xlink="http://www.w3.org/1999/xlink" id="Layer_1" data-name="Layer 1" viewBox="0 0 1080 691.74">
  <defs>
    <style>.cls-1,.cls-13,.cls-14,.cls-5{fill:none;}.cls-2{fill:#f7c13f;}.cls-3{fill:#ed6b52;}.cls-4{fill:#fff;}.cls-13,.cls-14,.cls-4,.cls-5{stroke:#4265ae;stroke-miterlimit:10;}.cls-4,.cls-5{stroke-width:5px;}.cls-6{fill:#49bcc3;}.cls-7{fill:#e4eaf2;opacity:0.52;}.cls-10,.cls-8{fill:#e5edf6;}.cls-8{opacity:0.48;}.cls-9{opacity:0.5;}.cls-11{clip-path:url(#clip-path);}.cls-12{fill:#4265ad;}.cls-13,.cls-14{stroke-width:3px;}.cls-14{stroke-dasharray:11.77 11.77;}.cls-15{fill:#4265ae;}</style>
    <clipPath id="clip-path">
      <rect class="cls-1" x="235.37" y="158.89" width="158.67" height="158.67" rx="22.89" transform="translate(629.42 476.46) rotate(-180)"></rect>
    </clipPath>
  </defs>
  <rect class="cls-2" x="789.09" y="489.71" width="185.06" height="185.06" rx="20.58"></rect>
  <rect class="cls-3" x="72.29" y="66.2" width="185.06" height="185.06" rx="20.58"></rect>
  <circle class="cls-3" cx="62.09" cy="165.32" r="2.87"></circle>
  <circle class="cls-2" cx="96.74" cy="165.32" r="2.87"></circle>
  <circle class="cls-2" cx="131.4" cy="165.32" r="2.87"></circle>
  <circle class="cls-3" cx="166.06" cy="165.32" r="2.87"></circle>
  <circle class="cls-3" cx="200.71" cy="165.32" r="2.87"></circle>
  <circle class="cls-3" cx="235.37" cy="165.32" r="2.87"></circle>
  <circle class="cls-3" cx="270.03" cy="165.32" r="2.87"></circle>
  <circle class="cls-3" cx="74.41" cy="196.12" r="2.87"></circle>
  <circle class="cls-2" cx="109.06" cy="196.12" r="2.87"></circle>
  <circle class="cls-3" cx="143.72" cy="196.12" r="2.87"></circle>
  <circle class="cls-3" cx="178.38" cy="196.12" r="2.87"></circle>
  <circle class="cls-3" cx="213.03" cy="196.12" r="2.87"></circle>
  <circle class="cls-3" cx="247.69" cy="196.12" r="2.87"></circle>
  <circle class="cls-3" cx="282.35" cy="196.12" r="2.87"></circle>
  <circle class="cls-3" cx="62.09" cy="230.78" r="2.87"></circle>
  <circle class="cls-2" cx="96.74" cy="230.78" r="2.87"></circle>
  <circle class="cls-2" cx="131.4" cy="230.78" r="2.87"></circle>
  <circle class="cls-3" cx="166.06" cy="230.78" r="2.87"></circle>
  <circle class="cls-3" cx="200.71" cy="230.78" r="2.87"></circle>
  <circle class="cls-3" cx="235.37" cy="230.78" r="2.87"></circle>
  <circle class="cls-3" cx="270.03" cy="230.78" r="2.87"></circle>
  <circle class="cls-3" cx="74.41" cy="261.97" r="2.87"></circle>
  <circle class="cls-2" cx="109.06" cy="261.97" r="2.87"></circle>
  <circle class="cls-3" cx="143.72" cy="261.97" r="2.87"></circle>
  <circle class="cls-3" cx="178.38" cy="261.97" r="2.87"></circle>
  <circle class="cls-3" cx="213.03" cy="261.97" r="2.87"></circle>
  <circle class="cls-3" cx="247.69" cy="261.97" r="2.87"></circle>
  <circle class="cls-3" cx="282.35" cy="261.97" r="2.87"></circle>
  <circle class="cls-3" cx="62.09" cy="296.63" r="2.87"></circle>
  <circle class="cls-2" cx="96.74" cy="296.63" r="2.87"></circle>
  <circle class="cls-2" cx="131.4" cy="296.63" r="2.87"></circle>
  <circle class="cls-3" cx="166.06" cy="296.63" r="2.87"></circle>
  <circle class="cls-3" cx="200.71" cy="296.63" r="2.87"></circle>
  <circle class="cls-3" cx="235.37" cy="296.63" r="2.87"></circle>
  <circle class="cls-3" cx="270.03" cy="296.63" r="2.87"></circle>
  <circle class="cls-3" cx="74.41" cy="327.43" r="2.87"></circle>
  <circle class="cls-2" cx="109.06" cy="327.43" r="2.87"></circle>
  <circle class="cls-3" cx="143.72" cy="327.43" r="2.87"></circle>
  <circle class="cls-3" cx="178.38" cy="327.43" r="2.87"></circle>
  <circle class="cls-3" cx="213.03" cy="327.43" r="2.87"></circle>
  <circle class="cls-3" cx="247.69" cy="327.43" r="2.87"></circle>
  <circle class="cls-3" cx="282.35" cy="327.43" r="2.87"></circle>
  <circle class="cls-3" cx="62.09" cy="362.09" r="2.87"></circle>
  <circle class="cls-2" cx="96.74" cy="362.09" r="2.87"></circle>
  <circle class="cls-3" cx="131.4" cy="362.09" r="2.87"></circle>
  <circle class="cls-3" cx="166.06" cy="362.09" r="2.87"></circle>
  <circle class="cls-3" cx="200.71" cy="362.09" r="2.87"></circle>
  <circle class="cls-3" cx="235.37" cy="362.09" r="2.87"></circle>
  <circle class="cls-3" cx="270.03" cy="362.09" r="2.87"></circle>
  <circle class="cls-3" cx="681.4" cy="456.21" r="2.87"></circle>
  <circle class="cls-3" cx="716.06" cy="456.21" r="2.87"></circle>
  <circle class="cls-3" cx="750.71" cy="456.21" r="2.87"></circle>
  <circle class="cls-3" cx="785.37" cy="456.21" r="2.87"></circle>
  <circle class="cls-3" cx="820.03" cy="456.21" r="2.87"></circle>
  <circle class="cls-3" cx="854.68" cy="456.21" r="2.87"></circle>
  <circle class="cls-3" cx="889.34" cy="456.21" r="2.87"></circle>
  <circle class="cls-3" cx="693.72" cy="487.02" r="2.87"></circle>
  <circle class="cls-3" cx="728.38" cy="487.02" r="2.87"></circle>
  <circle class="cls-3" cx="763.04" cy="487.02" r="2.87"></circle>
  <circle class="cls-3" cx="797.69" cy="487.02" r="2.87"></circle>
  <circle class="cls-3" cx="832.35" cy="487.02" r="2.87"></circle>
  <circle class="cls-3" cx="867.01" cy="487.02" r="2.87"></circle>
  <circle class="cls-3" cx="901.66" cy="487.02" r="2.87"></circle>
  <circle class="cls-3" cx="681.4" cy="521.67" r="2.87"></circle>
  <circle class="cls-3" cx="716.06" cy="521.67" r="2.87"></circle>
  <circle class="cls-3" cx="750.71" cy="521.67" r="2.87"></circle>
  <circle class="cls-3" cx="785.37" cy="521.67" r="2.87"></circle>
  <circle class="cls-3" cx="820.03" cy="521.67" r="2.87"></circle>
  <circle class="cls-3" cx="854.68" cy="521.67" r="2.87"></circle>
  <circle class="cls-3" cx="889.34" cy="521.67" r="2.87"></circle>
  <circle class="cls-3" cx="693.72" cy="552.86" r="2.87"></circle>
  <circle class="cls-3" cx="728.38" cy="552.86" r="2.87"></circle>
  <circle class="cls-3" cx="763.04" cy="552.86" r="2.87"></circle>
  <circle class="cls-3" cx="797.69" cy="552.86" r="2.87"></circle>
  <circle class="cls-3" cx="832.35" cy="552.86" r="2.87"></circle>
  <circle class="cls-3" cx="867.01" cy="552.86" r="2.87"></circle>
  <circle class="cls-3" cx="901.66" cy="552.86" r="2.87"></circle>
  <circle class="cls-3" cx="681.4" cy="587.52" r="2.87"></circle>
  <circle class="cls-3" cx="716.06" cy="587.52" r="2.87"></circle>
  <circle class="cls-3" cx="750.71" cy="587.52" r="2.87"></circle>
  <circle class="cls-3" cx="785.37" cy="587.52" r="2.87"></circle>
  <circle class="cls-3" cx="820.03" cy="587.52" r="2.87"></circle>
  <circle class="cls-3" cx="854.68" cy="587.52" r="2.87"></circle>
  <circle class="cls-3" cx="889.34" cy="587.52" r="2.87"></circle>
  <circle class="cls-3" cx="693.72" cy="618.33" r="2.87"></circle>
  <circle class="cls-3" cx="728.38" cy="618.33" r="2.87"></circle>
  <circle class="cls-3" cx="763.04" cy="618.33" r="2.87"></circle>
  <circle class="cls-3" cx="797.69" cy="618.33" r="2.87"></circle>
  <circle class="cls-3" cx="832.35" cy="618.33" r="2.87"></circle>
  <circle class="cls-3" cx="867.01" cy="618.33" r="2.87"></circle>
  <circle class="cls-3" cx="901.66" cy="618.33" r="2.87"></circle>
  <circle class="cls-3" cx="681.4" cy="652.98" r="2.87"></circle>
  <circle class="cls-3" cx="716.06" cy="652.98" r="2.87"></circle>
  <circle class="cls-3" cx="750.71" cy="652.98" r="2.87"></circle>
  <circle class="cls-3" cx="785.37" cy="652.98" r="2.87"></circle>
  <circle class="cls-3" cx="820.03" cy="652.98" r="2.87"></circle>
  <circle class="cls-3" cx="854.68" cy="652.98" r="2.87"></circle>
  <circle class="cls-3" cx="889.34" cy="652.98" r="2.87"></circle>
  <rect class="cls-4" x="247.98" y="111.01" width="715.7" height="499.19" rx="49.56"></rect>
  <line class="cls-5" x1="247.98" y1="183.25" x2="964.44" y2="183.25"></line>
  <circle class="cls-3" cx="186.96" cy="144.74" r="11.97"></circle>
  <circle class="cls-2" cx="222.38" cy="144.74" r="11.97"></circle>
  <circle class="cls-6" cx="258.8" cy="144.74" r="11.97"></circle>
  <rect class="cls-7" x="301.19" y="137.31" width="473.28" height="19.4" rx="9.7"></rect>
  <rect class="cls-4" x="178.04" y="23.91" width="715.7" height="499.19" rx="49.56"></rect>
  <line class="cls-5" x1="178.04" y1="96.14" x2="894.5" y2="96.14"></line>
  <circle class="cls-3" cx="237.02" cy="57.63" r="11.97"></circle>
  <circle class="cls-2" cx="272.44" cy="57.63" r="11.97"></circle>
  <circle class="cls-6" cx="308.86" cy="57.63" r="11.97"></circle>
  <rect class="cls-7" x="351.25" y="50.21" width="473.28" height="19.4" rx="9.7"></rect>
  <rect class="cls-8" x="442.52" y="167.55" width="399.8" height="25.69" rx="8.31"></rect>
  <rect class="cls-8" x="442.52" y="224.32" width="399.8" height="25.69" rx="8.31"></rect>
  <rect class="cls-8" x="442.52" y="284.77" width="399.8" height="25.69" rx="8.31"></rect>
  <g class="cls-9">
    <rect class="cls-10" x="235.37" y="158.89" width="158.67" height="158.67" rx="22.89" transform="translate(629.42 476.46) rotate(-180)"></rect>
    <g class="cls-11">
      <rect class="cls-3" x="270.38" y="238.23" width="130.12" height="130.12" rx="65.06" transform="translate(787.1 280.55) rotate(135)"></rect>
      <rect class="cls-12" x="212.6" y="252.54" width="114.48" height="114.48" rx="57.24" transform="translate(679.69 338.02) rotate(135)"></rect>
    </g>
    <circle class="cls-2" cx="295.94" cy="197.67" r="19.28"></circle>
  </g>
  <rect class="cls-8" x="233.88" y="343.4" width="607.66" height="69.94" rx="8.31"></rect>
  <rect class="cls-8" x="233.88" y="433.22" width="607.66" height="19.69" rx="8.31"></rect>
  <line class="cls-13" x1="972.31" y1="409.55" x2="978.31" y2="409.55"></line>
  <path class="cls-14" d="M990,408.73a26.39,26.39,0,0,0,19.85-25.57V90.4A26.39,26.39,0,0,0,983.47,64H934.69"></path>
  <line class="cls-13" x1="928.81" y1="64.01" x2="922.81" y2="64.01"></line>
  <path class="cls-15" d="M904.7,64c8.52-3.16,19.09-8.55,25.64-14.27L925.18,64l5.16,14.26C923.79,72.56,913.22,67.17,904.7,64Z"></path>
  <circle class="cls-2" cx="1009.59" cy="119.71" r="11.2"></circle>
  <circle class="cls-3" cx="1009.59" cy="169.71" r="11.2"></circle>
</svg>
